<svg width="25" height="19" viewBox="0 0 25 19" fill="none" xmlns="http://www.w3.org/2000/svg">
<path d="M13.625 18.625V13.375H17.125L12.75 8.125L8.375 13.375H11.875V18.625H7.5V18.5813C7.353 18.59 7.213 18.625 7.0625 18.625C5.32202 18.625 3.65282 17.9336 2.42211 16.7029C1.1914 15.4722 0.5 13.803 0.5 12.0625C0.5 8.6955 3.04625 5.9515 6.3135 5.57525C6.59996 4.07777 7.39929 2.72691 8.574 1.75501C9.7487 0.783116 11.2254 0.250935 12.75 0.25C14.2749 0.250843 15.7518 0.782953 16.9268 1.75483C18.1018 2.72671 18.9014 4.07761 19.1882 5.57525C22.4555 5.9515 24.9982 8.6955 24.9982 12.0625C24.9982 13.803 24.3068 15.4722 23.0761 16.7029C21.8454 17.9336 20.1762 18.625 18.4357 18.625C18.2887 18.625 18.147 18.59 17.9982 18.5813V18.625H13.625Z" fill="#6F874B"/>
</svg>
