<svg width="30" height="30" viewBox="0 0 30 30" fill="none" xmlns="http://www.w3.org/2000/svg">
<path fill-rule="evenodd" clip-rule="evenodd" d="M26.1317 0.0214844H3.85367C2.83638 0.0251731 1.8618 0.430927 1.14246 1.15027C0.423114 1.86961 0.0173606 2.84419 0.0136719 3.86148V26.1395C0.0173606 27.1568 0.423114 28.1314 1.14246 28.8507C1.8618 29.57 2.83638 29.9758 3.85367 29.9795H26.1317C27.149 29.9758 28.1235 29.57 28.8429 28.8507C29.5622 28.1314 29.968 27.1568 29.9717 26.1395V3.86148C29.968 2.84419 29.5622 1.86961 28.8429 1.15027C28.1235 0.430927 27.149 0.0251731 26.1317 0.0214844ZM19.4317 13.4325L19.2887 15.0005H16.3037V24.9865H12.3137V15.0005H10.3137V11.0065H12.3137V9.19349C12.2694 8.63017 12.3481 8.06397 12.5443 7.53408C12.7405 7.00418 13.0495 6.52325 13.4499 6.12455C13.8503 5.72586 14.3326 5.41894 14.8633 5.22502C15.394 5.03111 15.9606 4.95484 16.5237 5.00148L19.6157 5.01548V8.44648H17.3647C17.241 8.43922 17.1172 8.45961 17.0024 8.50618C16.8876 8.55274 16.7845 8.62431 16.7008 8.71567C16.6171 8.80704 16.5548 8.91591 16.5185 9.03436C16.4821 9.15282 16.4726 9.27789 16.4907 9.40048V11.0055H19.6577L19.4317 13.4325Z" fill="white"/>
</svg>
