<svg width="31" height="30" viewBox="0 0 31 30" fill="none" xmlns="http://www.w3.org/2000/svg">
<path d="M23.0376 5.20644C22.6816 5.20644 22.3336 5.31201 22.0375 5.50979C21.7415 5.70758 21.5108 5.9887 21.3746 6.31761C21.2383 6.64651 21.2027 7.00843 21.2722 7.3576C21.3416 7.70677 21.513 8.0275 21.7648 8.27923C22.0165 8.53096 22.3372 8.7024 22.6864 8.77185C23.0356 8.8413 23.3975 8.80566 23.7264 8.66942C24.0553 8.53318 24.3364 8.30247 24.5342 8.00646C24.732 7.71046 24.8376 7.36244 24.8376 7.00644C24.8376 6.52905 24.6479 6.07121 24.3104 5.73365C23.9728 5.39608 23.515 5.20644 23.0376 5.20644ZM29.9276 8.83144C29.8985 7.58859 29.6657 6.35894 29.2386 5.19144C28.8575 4.1926 28.2646 3.28819 27.5006 2.54044C26.759 1.77254 25.8524 1.18334 24.8496 0.817437C23.6849 0.378661 22.4539 0.141927 21.2096 0.117438C19.6226 0.0234376 19.1126 0.0234375 15.0386 0.0234375C10.9646 0.0234375 10.4546 0.0234374 8.86757 0.113437C7.62324 0.137927 6.39223 0.374661 5.22757 0.813437C4.22591 1.18379 3.31979 1.77353 2.57557 2.53944C1.8079 3.28143 1.21905 4.1883 0.85357 5.19144C0.414794 6.35609 0.17806 7.58711 0.15357 8.83144C0.0595704 10.4234 0.0595703 10.9234 0.0595703 15.0024C0.0595703 19.0814 0.0595702 19.5864 0.14957 21.1734C0.17406 22.4178 0.410794 23.6488 0.84957 24.8134C1.21548 25.8163 1.80467 26.7228 2.57257 27.4644C3.3168 28.2291 4.22255 28.8178 5.22357 29.1874C6.38823 29.6262 7.61924 29.8629 8.86357 29.8874C10.4516 29.9774 10.9636 29.9774 15.0346 29.9774C19.1056 29.9774 19.6186 29.9774 21.2056 29.8874C22.4499 29.8629 23.6809 29.6262 24.8456 29.1874C25.8484 28.8215 26.755 28.2323 27.4966 27.4644C28.264 26.7195 28.8574 25.8143 29.2346 24.8134C29.6617 23.6459 29.8945 22.4163 29.9236 21.1734C29.9236 19.5854 30.0136 19.0734 30.0136 15.0024C30.0136 10.9314 30.0176 10.4234 29.9276 8.83144ZM27.2276 20.9944C27.2168 21.9452 27.0447 22.8873 26.7186 23.7804C26.4796 24.4324 26.0956 25.0216 25.5956 25.5034C25.1104 25.9968 24.5239 26.379 23.8766 26.6234C22.9834 26.9496 22.0414 27.1217 21.0906 27.1324C19.5906 27.2074 19.0386 27.2224 15.0986 27.2224C11.1586 27.2224 10.6046 27.2224 9.10657 27.1324C8.11929 27.151 7.1362 26.9992 6.20057 26.6834C5.58006 26.426 5.01912 26.0438 4.55257 25.5604C4.05552 25.0791 3.67633 24.4894 3.44457 23.8374C3.07861 22.9315 2.8755 21.968 2.84457 20.9914C2.84457 19.4914 2.75457 18.9394 2.75457 14.9994C2.75457 11.0594 2.75457 10.5054 2.84457 9.00744C2.85191 8.03636 3.0296 7.07409 3.36957 6.16444C3.63356 5.53238 4.03854 4.96903 4.55357 4.51744C5.00882 4.00398 5.57099 3.59643 6.20057 3.32344C7.11363 2.99406 8.07595 2.82196 9.04657 2.81444C10.5466 2.81444 11.0986 2.72444 15.0386 2.72444C18.9786 2.72444 19.5326 2.72444 21.0306 2.81444C21.9814 2.8252 22.9234 2.99731 23.8166 3.32344C24.4976 3.57649 25.1087 3.98779 25.5996 4.52344C26.0903 4.9837 26.4737 5.54635 26.7226 6.17144C27.0554 7.08356 27.2277 8.04648 27.2316 9.01744C27.3066 10.5174 27.3216 11.0694 27.3216 15.0094C27.3216 18.9494 27.3066 19.4964 27.2316 20.9944H27.2276ZM15.0386 7.31844C13.2653 7.32545 11.5493 7.94676 10.1826 9.07662C8.81583 10.2065 7.88289 11.775 7.54251 13.5153C7.20214 15.2556 7.47537 17.0601 8.31571 18.6216C9.15604 20.1832 10.5115 21.4052 12.1515 22.0798C13.7914 22.7544 15.6145 22.8398 17.3103 22.3215C19.0062 21.8032 20.47 20.7133 21.4527 19.2372C22.4354 17.7611 22.8761 15.9901 22.7 14.2256C22.5238 12.4611 21.7417 10.8121 20.4866 9.55944C19.7705 8.84591 18.9207 8.28067 17.9859 7.89612C17.051 7.51157 16.0494 7.31526 15.0386 7.31844ZM15.0386 19.9904C14.052 19.9904 13.0877 19.6979 12.2674 19.1498C11.4471 18.6017 10.8078 17.8227 10.4303 16.9113C10.0527 15.9998 9.95395 14.9969 10.1464 14.0293C10.3389 13.0618 10.8139 12.173 11.5115 11.4754C12.2091 10.7778 13.0979 10.3027 14.0655 10.1103C15.033 9.91782 16.036 10.0166 16.9474 10.3941C17.8588 10.7717 18.6379 11.411 19.1859 12.2313C19.734 13.0515 20.0266 14.0159 20.0266 15.0024C20.0266 16.3253 19.501 17.5941 18.5656 18.5295C17.6302 19.4649 16.3615 19.9904 15.0386 19.9904Z" fill="white"/>
</svg>
