<svg width="182" height="165" viewBox="0 0 182 165" fill="none" xmlns="http://www.w3.org/2000/svg">
<g opacity="0.34">
<mask id="path-1-inside-1_322_3811" fill="white">
<path d="M17.4309 33.3636C25.407 44.5418 36.7272 52.9492 48.7242 59.6281C86.7618 80.8074 133.569 85.6106 175.116 72.6002C181.61 96.263 172.975 122.899 155.185 139.799C137.395 156.699 111.518 163.989 87.1639 160.993C62.8098 157.994 40.1549 145.288 23.2038 127.549C15.9954 120.004 9.65127 111.406 6.14715 101.577C2.00626 89.9644 2.04992 77.1359 4.73532 65.1026C7.42071 53.0692 12.6423 41.7382 18.6608 30.9766"/>
</mask>
<path d="M17.4309 33.3636C25.407 44.5418 36.7272 52.9492 48.7242 59.6281C86.7618 80.8074 133.569 85.6106 175.116 72.6002C181.61 96.263 172.975 122.899 155.185 139.799C137.395 156.699 111.518 163.989 87.1639 160.993C62.8098 157.994 40.1549 145.288 23.2038 127.549C15.9954 120.004 9.65127 111.406 6.14715 101.577C2.00626 89.9644 2.04992 77.1359 4.73532 65.1026C7.42071 53.0692 12.6423 41.7382 18.6608 30.9766" fill="#E0EDCA" fill-opacity="0.6"/>
<path d="M48.7242 59.6281L49.6093 58.0385L49.6092 58.0384L48.7242 59.6281ZM175.116 72.6002L176.871 72.1188L176.372 70.3006L174.572 70.864L175.116 72.6002ZM87.1639 160.993L86.9416 162.798L86.9417 162.799L87.1639 160.993ZM23.2038 127.549L21.8883 128.806L21.8884 128.806L23.2038 127.549ZM6.14715 101.577L7.86086 100.966L7.86084 100.966L6.14715 101.577ZM17.4309 33.3636L15.9499 34.4204C24.143 45.9026 35.718 54.4696 47.8392 61.2177L48.7242 59.6281L49.6092 58.0384C37.7365 51.4287 26.6711 43.1811 18.9119 32.3068L17.4309 33.3636ZM48.7242 59.6281L47.8391 61.2177C86.3128 82.6398 133.636 87.4959 175.66 74.3365L175.116 72.6002L174.572 70.864C133.501 83.7252 87.2109 78.9751 49.6093 58.0385L48.7242 59.6281ZM175.116 72.6002L173.362 73.0817C179.66 96.0339 171.285 121.994 153.932 138.48L155.185 139.799L156.438 141.118C174.664 123.803 183.559 96.4922 176.871 72.1188L175.116 72.6002ZM155.185 139.799L153.932 138.48C136.582 154.962 111.266 162.125 87.3861 159.187L87.1639 160.993L86.9417 162.799C111.77 165.853 138.208 158.436 156.438 141.118L155.185 139.799ZM87.1639 160.993L87.3862 159.187C63.5087 156.247 41.2248 143.774 24.5192 126.292L23.2038 127.549L21.8884 128.806C39.085 146.802 62.1108 159.741 86.9416 162.798L87.1639 160.993ZM23.2038 127.549L24.5193 126.292C17.4075 118.848 11.2472 110.464 7.86086 100.966L6.14715 101.577L4.43344 102.188C8.05531 112.347 14.5834 121.16 21.8883 128.806L23.2038 127.549ZM6.14715 101.577L7.86084 100.966C3.86212 89.752 3.88072 77.2853 6.51101 65.4989L4.73532 65.1026L2.95962 64.7063C0.219116 76.9866 0.150388 90.1767 4.43346 102.188L6.14715 101.577ZM4.73532 65.1026L6.51101 65.4989C9.14198 53.7094 14.271 42.5532 20.2487 31.8646L18.6608 30.9766L17.0729 30.0885C11.0136 40.9231 5.69944 52.4291 2.95962 64.7063L4.73532 65.1026Z" fill="#6F874B" mask="url(#path-1-inside-1_322_3811)"/>
</g>
<path d="M102.18 8.92965C75.4228 5.83671 52.2859 9.38994 30.4661 25.1858C8.64635 40.9798 -4.5514 70.0843 3.27009 95.8594C6.99799 108.147 14.9578 118.725 23.7781 128.059C38.0493 143.161 55.4698 155.977 75.5466 161.331C96.1564 166.828 119.082 163.828 137.085 152.387C155.088 140.947 167.676 121.023 169.339 99.7583C170.904 79.7561 163.017 59.7211 150.314 44.1928C137.611 28.6644 120.407 17.3133 102.18 8.92965Z" stroke="#6F874B" stroke-width="1.81937" stroke-miterlimit="10" stroke-linecap="round" stroke-linejoin="round"/>
<path d="M74.3636 63.9909C69.6332 62.2333 64.1169 61.5292 59.6958 63.9618C55.2748 66.3943 52.9678 72.8421 56.1662 76.7447C59.372 80.6563 65.6761 80.0123 69.7861 82.9578C73.9961 85.9744 74.8057 91.7855 77.2255 96.3666C81.0607 103.628 89.8556 107.903 97.9355 106.435C106.015 104.967 112.742 97.8694 113.777 89.7223C114.812 81.5751 110.071 73.0222 102.615 69.58C92.9213 65.108 83.5514 69.4272 74.3636 63.9909Z" stroke="#6F874B" stroke-width="1.81937" stroke-miterlimit="10" stroke-linecap="round" stroke-linejoin="round"/>
<path d="M78.4675 57.0683C81.4167 55.5765 84.526 53.939 86.1871 51.0808C87.8464 48.2225 87.2224 43.796 84.1403 42.608C81.0237 41.4072 77.5669 44.3491 76.932 47.6276C76.297 50.9061 77.596 54.2156 78.8678 57.303" stroke="#6F874B" stroke-width="1.81937" stroke-miterlimit="10" stroke-linecap="round" stroke-linejoin="round"/>
<path d="M91.6959 63.1105C94.1557 61.7733 96.7393 60.3178 98.1311 57.8871C99.5229 55.4564 99.1008 51.7649 96.5573 50.5896C93.9137 49.367 90.7262 51.6794 89.9257 54.4794C89.1252 57.2795 89.9766 60.2578 90.8263 63.0432" stroke="#6F874B" stroke-width="1.81937" stroke-miterlimit="10" stroke-linecap="round" stroke-linejoin="round"/>
<path d="M103.041 65.0553C105.013 64.3257 109.753 63.9073 111.168 62.3517C112.584 60.7961 113.117 58.2181 111.769 56.6043C110.078 54.5775 106.531 55.3908 104.94 57.4976C103.35 59.6026 103.165 62.419 103.041 65.0553Z" stroke="#6F874B" stroke-width="1.81937" stroke-miterlimit="10" stroke-linecap="round" stroke-linejoin="round"/>
<path d="M115.18 73.4047C117.368 74.2015 119.679 75.0112 121.975 74.6218C124.271 74.2325 126.458 72.1693 126.107 69.8678C125.663 66.9568 121.531 65.9907 119.013 67.519C116.495 69.0454 116.244 70.6592 115.18 73.4047Z" stroke="#6F874B" stroke-width="1.81937" stroke-miterlimit="10" stroke-linecap="round" stroke-linejoin="round"/>
<path d="M119.441 85.94C121.757 87.8285 124.359 89.8171 127.347 89.7207C130.334 89.6242 133.159 86.0946 131.446 83.6458C130.05 81.6517 126.95 81.9519 124.801 83.0963C122.653 84.2389 121.841 85.527 119.441 85.94Z" stroke="#6F874B" stroke-width="1.81937" stroke-miterlimit="10" stroke-linecap="round" stroke-linejoin="round"/>
<path d="M70.3407 58.8931C71.5961 55.8129 71.6962 52.2779 70.6155 49.1322C69.6567 46.3449 66.8512 43.574 64.1112 44.6656C61.5496 45.6845 61.2512 49.4979 62.8777 51.7212C64.5042 53.9463 67.2751 54.9615 69.8805 55.8584" stroke="#6F874B" stroke-width="1.81937" stroke-miterlimit="10" stroke-linecap="round" stroke-linejoin="round"/>
<path d="M53.442 58.5547C52.4305 56.2986 51.3352 53.9389 49.3321 52.4889C47.3289 51.0388 44.1269 50.9333 42.6714 52.931C40.9903 55.2398 42.8042 58.7475 45.4459 59.8319C48.0876 60.9162 51.0841 60.3231 53.875 59.7173" stroke="#6F874B" stroke-width="1.81937" stroke-miterlimit="10" stroke-linecap="round" stroke-linejoin="round"/>
<path d="M52.5385 82.1973C50.2697 82.4393 47.8591 82.7395 46.1034 84.195C44.3477 85.6505 43.7346 88.6997 45.4939 90.1516C47.2096 91.5671 50.0114 90.4936 51.1648 88.5906C52.3165 86.6875 52.2892 84.3223 52.2274 82.0972" stroke="#6F874B" stroke-width="1.81937" stroke-miterlimit="10" stroke-linecap="round" stroke-linejoin="round"/>
<path d="M68.2166 92.1094C67.327 94.8276 64.4324 96.2249 62.0326 97.7786C59.6328 99.3323 57.2876 102.103 58.3411 104.761C59.2435 107.041 62.4547 107.751 64.5815 106.53C66.7084 105.309 67.8546 103.033 68.606 100.699C69.3101 98.5154 69.1045 94.0998 68.3276 91.7747" stroke="#6F874B" stroke-width="1.81937" stroke-miterlimit="10" stroke-linecap="round" stroke-linejoin="round"/>
<path d="M78.0896 107.609C75.6025 108.615 72.9772 109.727 71.427 111.917C69.8769 114.108 70.0298 117.717 72.415 118.945C75.0094 120.281 78.2424 117.779 78.7809 114.912C79.3177 112.043 79.3177 110.254 78.0896 107.609Z" stroke="#6F874B" stroke-width="1.81937" stroke-miterlimit="10" stroke-linecap="round" stroke-linejoin="round"/>
<path d="M89.4302 111.109C87.5162 112.43 85.3221 116.873 84.1941 118.905C83.0661 120.937 83.0806 123.808 84.8618 125.302C87.5672 127.569 92.0337 124.762 92.6123 121.281C93.1909 117.799 91.2969 114.431 89.4211 111.44" stroke="#6F874B" stroke-width="1.81937" stroke-miterlimit="10" stroke-linecap="round" stroke-linejoin="round"/>
<path d="M101.61 112.508C100.051 114.238 98.7482 116.283 98.3388 118.576C97.9295 120.868 98.5426 123.426 100.289 124.965C103.111 127.451 108.356 125.851 109.312 122.215C110.267 118.578 105.291 111.731 101.61 112.508Z" stroke="#6F874B" stroke-width="1.81937" stroke-miterlimit="10" stroke-linecap="round" stroke-linejoin="round"/>
<path d="M118.695 95.488C124.492 97.8441 130.287 100.198 136.083 102.554" stroke="#6F874B" stroke-width="1.81937" stroke-miterlimit="10" stroke-linecap="round" stroke-linejoin="round"/>
<path d="M116.021 99.1885C121.285 102.234 126.55 105.282 131.814 108.329" stroke="#6F874B" stroke-width="1.81937" stroke-miterlimit="10" stroke-linecap="round" stroke-linejoin="round"/>
<path d="M110.633 105.26C115.507 108.655 120.379 112.048 125.253 115.443" stroke="#6F874B" stroke-width="1.81937" stroke-miterlimit="10" stroke-linecap="round" stroke-linejoin="round"/>
<path d="M49.1459 67.3495C42.8727 67.9117 36.5995 68.4739 30.3281 69.0361" stroke="#6F874B" stroke-width="1.81937" stroke-miterlimit="10" stroke-linecap="round" stroke-linejoin="round"/>
<path d="M50.8408 73.7355C44.3184 74.9817 37.7959 76.228 31.2734 77.4761" stroke="#6F874B" stroke-width="1.81937" stroke-miterlimit="10" stroke-linecap="round" stroke-linejoin="round"/>
<path d="M60.1821 88.3251C55.0752 93.4812 49.9664 98.6373 44.8594 103.795" stroke="#6F874B" stroke-width="1.81937" stroke-miterlimit="10" stroke-linecap="round" stroke-linejoin="round"/>
<path d="M73.5493 101.043C68.6988 107.139 63.8465 113.236 58.9961 119.333" stroke="#6F874B" stroke-width="1.81937" stroke-miterlimit="10" stroke-linecap="round" stroke-linejoin="round"/>
<path d="M84.3418 110.68C82.5352 119.013 80.7285 127.344 78.9219 135.676" stroke="#6F874B" stroke-width="1.81937" stroke-miterlimit="10" stroke-linecap="round" stroke-linejoin="round"/>
<path d="M95.0605 114.515C96.5706 120.987 98.0825 127.458 99.5926 133.928" stroke="#6F874B" stroke-width="1.81937" stroke-miterlimit="10" stroke-linecap="round" stroke-linejoin="round"/>
<path d="M142.067 69.9022C134.036 73.4791 126.007 77.0559 117.977 80.6328" stroke="#6F874B" stroke-width="1.81937" stroke-miterlimit="10" stroke-linecap="round" stroke-linejoin="round"/>
<path d="M131.079 52.0122C122.997 57.9925 114.916 63.9728 106.834 69.9512" stroke="#6F874B" stroke-width="1.81937" stroke-miterlimit="10" stroke-linecap="round" stroke-linejoin="round"/>
<path d="M110.128 42.6715C105.348 50.3529 100.571 58.0361 95.791 65.7175" stroke="#6F874B" stroke-width="1.81937" stroke-miterlimit="10" stroke-linecap="round" stroke-linejoin="round"/>
<path d="M98.6979 35.9728C91.1929 44.2564 84.8615 53.6007 79.9492 63.64" stroke="#6F874B" stroke-width="1.81937" stroke-miterlimit="10" stroke-linecap="round" stroke-linejoin="round"/>
<path d="M73.5161 35.847C72.499 43.1937 71.4838 50.5403 70.4668 57.887" stroke="#6F874B" stroke-width="1.81937" stroke-miterlimit="10" stroke-linecap="round" stroke-linejoin="round"/>
<path d="M47.2891 38.0195C49.1466 44.8131 52.6835 51.1427 57.4976 56.2842" stroke="#6F874B" stroke-width="1.81937" stroke-miterlimit="10" stroke-linecap="round" stroke-linejoin="round"/>
<path d="M5.9043 55.0361C12.5468 33.2218 34.5795 12.2425 56.2191 5.05237C77.8606 -2.1378 102.237 0.54577 122.663 10.6833C143.089 20.8209 159.611 38.034 170.576 58.0271C176.38 68.6068 180.768 80.2799 180.875 92.346C181.014 107.76 173.993 122.737 163.426 133.959C152.859 145.181 138.975 152.886 124.415 157.947" stroke="#6F874B" stroke-width="1.81937" stroke-miterlimit="10" stroke-linecap="round" stroke-linejoin="round"/>
<path d="M6.30273 57.1647C11.1586 56.9064 16.0128 56.6498 20.8687 56.3915" stroke="#6F874B" stroke-width="1.81937" stroke-miterlimit="10" stroke-linecap="round" stroke-linejoin="round"/>
<path d="M6.84375 60.5668C10.8773 60.7523 14.9108 60.9361 18.9426 61.1217" stroke="#6F874B" stroke-width="1.81937" stroke-miterlimit="10" stroke-linecap="round" stroke-linejoin="round"/>
<path d="M3.55469 65.4083C8.20865 65.4902 12.8626 65.5721 17.5148 65.6539" stroke="#6F874B" stroke-width="1.81937" stroke-miterlimit="10" stroke-linecap="round" stroke-linejoin="round"/>
<path d="M1.12891 71.0741C5.81198 70.9085 10.495 70.7429 15.1781 70.5756" stroke="#6F874B" stroke-width="1.81937" stroke-miterlimit="10" stroke-linecap="round" stroke-linejoin="round"/>
<path d="M25.2503 46.1193C20.1506 47.0908 15.0509 48.0605 9.95117 49.0321" stroke="#6F874B" stroke-width="1.81937" stroke-miterlimit="10" stroke-linecap="round" stroke-linejoin="round"/>
<path d="M25.1446 51.1136C19.3008 51.8923 13.4552 52.6692 7.61133 53.4479" stroke="#6F874B" stroke-width="1.81937" stroke-miterlimit="10" stroke-linecap="round" stroke-linejoin="round"/>
<path d="M33.1461 38.2452C26.5199 39.1313 19.8937 40.0191 13.2676 40.9052" stroke="#6F874B" stroke-width="1.81937" stroke-miterlimit="10" stroke-linecap="round" stroke-linejoin="round"/>
<path d="M37.8286 33.2656C32.1539 33.1455 26.4793 33.0236 20.8047 32.9036C21.245 32.516 21.6835 32.1285 22.1237 31.7428" stroke="#6F874B" stroke-width="1.81937" stroke-miterlimit="10" stroke-linecap="round" stroke-linejoin="round"/>
<path d="M45.466 27.5837C40.8484 27.0743 36.2309 26.5649 31.6133 26.0573" stroke="#6F874B" stroke-width="1.81937" stroke-miterlimit="10" stroke-linecap="round" stroke-linejoin="round"/>
<path d="M104.958 10.0338C101.422 11.9514 98.7371 15.3737 97.7109 19.2635" stroke="#6F874B" stroke-width="1.81937" stroke-miterlimit="10" stroke-linecap="round" stroke-linejoin="round"/>
<path d="M102.492 10.0175C98.0964 9.76101 93.7645 13.0614 92.8457 17.3678" stroke="#6F874B" stroke-width="1.81937" stroke-miterlimit="10" stroke-linecap="round" stroke-linejoin="round"/>
<path d="M99.3763 9.599C94.3458 10.1102 87.2029 12.9921 84.5957 17.3241" stroke="#6F874B" stroke-width="1.81937" stroke-miterlimit="10" stroke-linecap="round" stroke-linejoin="round"/>
<path d="M92.6985 8.90784C85.6958 9.45547 78.9768 12.9996 74.5703 18.4686" stroke="#6F874B" stroke-width="1.81937" stroke-miterlimit="10" stroke-linecap="round" stroke-linejoin="round"/>
<path d="M88.2229 8.66933C79.8901 7.00642 67.3273 14.0292 65.377 22.2983" stroke="#6F874B" stroke-width="1.81937" stroke-miterlimit="10" stroke-linecap="round" stroke-linejoin="round"/>
<path d="M40.6348 20.7661C43.9733 21.5048 47.3137 22.2435 50.6523 22.9803" stroke="#6F874B" stroke-width="1.81937" stroke-miterlimit="10" stroke-linecap="round" stroke-linejoin="round"/>
<path d="M46.5215 17.8114C49.9037 18.2171 53.286 18.6228 56.6682 19.0286" stroke="#6F874B" stroke-width="1.81937" stroke-miterlimit="10" stroke-linecap="round" stroke-linejoin="round"/>
<path d="M55.9102 11.5893C57.9624 11.0745 61.1336 14.5404 62.087 16.4289" stroke="#6F874B" stroke-width="1.81937" stroke-miterlimit="10" stroke-linecap="round" stroke-linejoin="round"/>
<path d="M110.781 14.9954C105.314 16.3162 101.412 22.2638 102.372 27.8056" stroke="#6F874B" stroke-width="1.81937" stroke-miterlimit="10" stroke-linecap="round" stroke-linejoin="round"/>
<path d="M115.116 18.3591C111.052 19.7855 108.277 24.2284 108.779 28.5058" stroke="#6F874B" stroke-width="1.81937" stroke-miterlimit="10" stroke-linecap="round" stroke-linejoin="round"/>
<path d="M122.126 22.9077C122.603 22.5457 123.079 22.1818 123.556 21.8198C119.964 23.6319 117.321 27.2106 116.639 31.1732" stroke="#6F874B" stroke-width="1.81937" stroke-miterlimit="10" stroke-linecap="round" stroke-linejoin="round"/>
<path d="M128.054 26.1843C126.232 28.4695 124.411 30.7546 122.592 33.0379" stroke="#6F874B" stroke-width="1.81937" stroke-miterlimit="10" stroke-linecap="round" stroke-linejoin="round"/>
<path d="M135.014 29.6755C133.147 32.259 131.279 34.8444 129.412 37.4279" stroke="#6F874B" stroke-width="1.81937" stroke-miterlimit="10" stroke-linecap="round" stroke-linejoin="round"/>
<path d="M142.202 35.2794C139.941 37.3608 137.679 39.4421 135.418 41.5235" stroke="#6F874B" stroke-width="1.81937" stroke-miterlimit="10" stroke-linecap="round" stroke-linejoin="round"/>
<path d="M145.473 40.3773C142.915 42.4369 140.357 44.4982 137.797 46.5577" stroke="#6F874B" stroke-width="1.81937" stroke-miterlimit="10" stroke-linecap="round" stroke-linejoin="round"/>
<path d="M150.893 47.1035C148.754 48.9902 146.612 50.8787 144.473 52.7654" stroke="#6F874B" stroke-width="1.81937" stroke-miterlimit="10" stroke-linecap="round" stroke-linejoin="round"/>
<path d="M154.545 53.8152C152.305 55.2015 150.064 56.5879 147.824 57.9761" stroke="#6F874B" stroke-width="1.81937" stroke-miterlimit="10" stroke-linecap="round" stroke-linejoin="round"/>
<path d="M160.66 60.3433C157.889 61.4349 155.119 62.5284 152.348 63.62" stroke="#6F874B" stroke-width="1.81937" stroke-miterlimit="10" stroke-linecap="round" stroke-linejoin="round"/>
<path d="M164.402 72.0236C161.398 72.5057 158.394 72.9878 155.391 73.47" stroke="#6F874B" stroke-width="1.81937" stroke-miterlimit="10" stroke-linecap="round" stroke-linejoin="round"/>
<path d="M100.092 3.42749C100.983 5.34147 101.875 7.25547 102.765 9.16945" stroke="#6F874B" stroke-width="1.81937" stroke-miterlimit="10" stroke-linecap="round" stroke-linejoin="round"/>
<path d="M102.57 3.97156C103.482 6.08021 104.393 8.19068 105.303 10.2993" stroke="#6F874B" stroke-width="1.81937" stroke-miterlimit="10" stroke-linecap="round" stroke-linejoin="round"/>
<path d="M106.146 4.15369C107.025 6.45702 107.904 8.76217 108.783 11.0655" stroke="#6F874B" stroke-width="1.81937" stroke-miterlimit="10" stroke-linecap="round" stroke-linejoin="round"/>
<path d="M111.02 6.32581C111.926 8.90022 112.832 11.4746 113.738 14.0491" stroke="#6F874B" stroke-width="1.81937" stroke-miterlimit="10" stroke-linecap="round" stroke-linejoin="round"/>
<path d="M116.602 8.0141C117.475 11.0106 118.35 14.0071 119.223 17.0036" stroke="#6F874B" stroke-width="1.81937" stroke-miterlimit="10" stroke-linecap="round" stroke-linejoin="round"/>
<path d="M121.818 10.2084C122.755 13.5069 123.691 16.8072 124.627 20.1058" stroke="#6F874B" stroke-width="1.81937" stroke-miterlimit="10" stroke-linecap="round" stroke-linejoin="round"/>
<path d="M129.259 15.2389C129.077 15.0151 128.896 14.7931 128.714 14.5693C128.412 18.0371 129.052 21.583 130.547 24.7251" stroke="#6F874B" stroke-width="1.81937" stroke-miterlimit="10" stroke-linecap="round" stroke-linejoin="round"/>
<path d="M133.979 18.3356C133.555 21.5486 134.054 24.8762 135.398 27.8254" stroke="#6F874B" stroke-width="1.81937" stroke-miterlimit="10" stroke-linecap="round" stroke-linejoin="round"/>
<path d="M150.105 31.2933C148.826 34.792 146.752 36.8788 145.473 40.3775" stroke="#6F874B" stroke-width="1.81937" stroke-miterlimit="10" stroke-linecap="round" stroke-linejoin="round"/>
<path d="M162.644 46.212C160.171 48.5645 157.697 50.9188 155.225 53.2712" stroke="#6F874B" stroke-width="1.81937" stroke-miterlimit="10" stroke-linecap="round" stroke-linejoin="round"/>
<path d="M164.351 50.8495C164.559 50.6512 164.768 50.4547 164.976 50.2563C162.783 52.2304 160.591 54.2026 158.398 56.1766" stroke="#6F874B" stroke-width="1.81937" stroke-miterlimit="10" stroke-linecap="round" stroke-linejoin="round"/>
<path d="M168.739 55.2144C166.256 56.9537 163.773 58.6912 161.289 60.4305" stroke="#6F874B" stroke-width="1.81937" stroke-miterlimit="10" stroke-linecap="round" stroke-linejoin="round"/>
<path d="M170.733 60.585C168.195 61.6566 165.655 62.7282 163.117 63.8016" stroke="#6F874B" stroke-width="1.81937" stroke-miterlimit="10" stroke-linecap="round" stroke-linejoin="round"/>
<path d="M173.024 64.484C170.546 65.5101 168.066 66.5363 165.588 67.5624" stroke="#6F874B" stroke-width="1.81937" stroke-miterlimit="10" stroke-linecap="round" stroke-linejoin="round"/>
<path d="M95.7563 1.83777C95.0741 3.65532 95.2506 5.7749 96.2221 7.45783" stroke="#6F874B" stroke-width="1.81937" stroke-miterlimit="10" stroke-linecap="round" stroke-linejoin="round"/>
<path d="M90.8643 2.45625C90.7097 2.31434 90.555 2.17243 90.4004 2.03052C90.9444 3.80077 91.4866 5.57102 92.0305 7.33945" stroke="#6F874B" stroke-width="1.81937" stroke-miterlimit="10" stroke-linecap="round" stroke-linejoin="round"/>
<path d="M86.4918 1.54639C85.9606 3.81151 86.3936 6.28768 87.6617 8.23805" stroke="#6F874B" stroke-width="1.81937" stroke-miterlimit="10" stroke-linecap="round" stroke-linejoin="round"/>
<path d="M81.2294 1.12793C80.6344 3.22931 80.6508 5.49989 81.2767 7.59399" stroke="#6F874B" stroke-width="1.81937" stroke-miterlimit="10" stroke-linecap="round" stroke-linejoin="round"/>
<path d="M75.3878 2.23389C73.6667 3.34734 73.512 6.21287 75.104 7.50462" stroke="#6F874B" stroke-width="1.81937" stroke-miterlimit="10" stroke-linecap="round" stroke-linejoin="round"/>
<path d="M69.6674 2.47443C68.8469 2.17242 67.9536 2.97294 67.8335 3.83896C67.7134 4.70499 68.1283 5.54917 68.5649 6.30603C69.0034 7.06289 69.4928 7.83794 69.5456 8.71124" stroke="#6F874B" stroke-width="1.81937" stroke-miterlimit="10" stroke-linecap="round" stroke-linejoin="round"/>
<path d="M62.1923 3.27869C60.5421 5.26908 60.735 7.92719 62.5798 9.73929" stroke="#6F874B" stroke-width="1.81937" stroke-miterlimit="10" stroke-linecap="round" stroke-linejoin="round"/>
<path d="M55.7634 5.078C53.8603 6.68269 53.9385 10.074 55.9126 11.5895" stroke="#6F874B" stroke-width="1.81937" stroke-miterlimit="10" stroke-linecap="round" stroke-linejoin="round"/>
<path d="M50.937 7.77954C49.9909 8.55823 49.4469 9.80451 49.5179 11.029C49.5889 12.2534 50.273 13.4269 51.3046 14.091" stroke="#6F874B" stroke-width="1.81937" stroke-miterlimit="10" stroke-linecap="round" stroke-linejoin="round"/>
<path d="M45.2349 10.5157C43.4628 12.306 43.7266 15.6646 45.7552 17.1565" stroke="#6F874B" stroke-width="1.81937" stroke-miterlimit="10" stroke-linecap="round" stroke-linejoin="round"/>
<path d="M39.5938 12.8303C38.5149 13.4944 37.8181 14.7389 37.8145 16.0051C37.8108 17.2714 38.5003 18.5195 39.5756 19.189" stroke="#6F874B" stroke-width="1.81937" stroke-miterlimit="10" stroke-linecap="round" stroke-linejoin="round"/>
<path d="M33.4967 16.5344C32.3487 18.2228 32.6762 20.7499 34.2173 22.0908" stroke="#6F874B" stroke-width="1.81937" stroke-miterlimit="10" stroke-linecap="round" stroke-linejoin="round"/>
<path d="M28.5939 21.4196C27.6296 23.0715 27.4804 25.1748 28.2045 26.945" stroke="#6F874B" stroke-width="1.81937" stroke-miterlimit="10" stroke-linecap="round" stroke-linejoin="round"/>
</svg>
