<svg width="31" height="30" viewBox="0 0 31 30" fill="none" xmlns="http://www.w3.org/2000/svg">
<path d="M26.1387 29.9795H5.83368C4.54601 29.9792 3.31101 29.4683 2.39955 28.5587C1.48809 27.6491 0.974592 26.4152 0.97168 25.1275V4.87348C0.974592 3.58582 1.48809 2.35187 2.39955 1.44229C3.31101 0.532703 4.54601 0.0217459 5.83368 0.0214844L26.1387 0.0214844C27.4263 0.0217465 28.6612 0.532736 29.5725 1.44235C30.4838 2.35196 30.997 3.58591 30.9997 4.87348V25.1285C30.9968 26.4159 30.4834 27.6496 29.5721 28.559C28.6608 29.4684 27.4261 29.9792 26.1387 29.9795ZM11.1137 24.7885H11.1197V11.8655H7.10468V24.7885H11.1137ZM9.11368 10.1005C9.57387 10.1001 10.0236 9.96325 10.406 9.70727C10.7885 9.45129 11.0864 9.08767 11.2622 8.66237C11.438 8.23708 11.4837 7.76921 11.3936 7.31792C11.3036 6.86663 11.0817 6.45218 10.7561 6.12699C10.4304 5.80179 10.0157 5.58044 9.56431 5.49093C9.1129 5.40142 8.64509 5.44776 8.22002 5.6241C7.79495 5.80043 7.43171 6.09885 7.17623 6.48161C6.92074 6.86437 6.78448 7.31429 6.78468 7.77448C6.78442 8.08027 6.8445 8.38309 6.96149 8.66561C7.07847 8.94813 7.25006 9.20478 7.46642 9.42087C7.68278 9.63695 7.93966 9.80821 8.22233 9.92483C8.50499 10.0414 8.8079 10.1011 9.11368 10.1005ZM26.1627 24.7885V17.7045C26.1627 14.2235 25.4067 11.5455 21.3457 11.5455C20.5831 11.5177 19.8272 11.6969 19.1582 12.064C18.4892 12.4311 17.932 12.9724 17.5457 13.6305H17.4917V11.8655H13.6417V24.7885H17.6547V18.3935C17.6547 16.7065 17.9747 15.0755 20.0657 15.0755C22.1217 15.0755 22.1517 17.0035 22.1517 18.5025V24.7885H26.1647H26.1627Z" fill="white"/>
</svg>
