<svg width="18" height="25" viewBox="0 0 18 25" fill="none" xmlns="http://www.w3.org/2000/svg">
<path d="M9.00065 11.9163C8.2271 11.9163 7.48524 11.6091 6.93826 11.0621C6.39128 10.5151 6.08398 9.77322 6.08398 8.99967C6.08398 8.22613 6.39128 7.48426 6.93826 6.93728C7.48524 6.3903 8.2271 6.08301 9.00065 6.08301C9.7742 6.08301 10.5161 6.3903 11.063 6.93728C11.61 7.48426 11.9173 8.22613 11.9173 8.99967C11.9173 9.3827 11.8419 9.76197 11.6953 10.1158C11.5487 10.4697 11.3339 10.7912 11.063 11.0621C10.7922 11.3329 10.4707 11.5477 10.1168 11.6943C9.76295 11.8409 9.38367 11.9163 9.00065 11.9163ZM9.00065 0.833008C6.83472 0.833008 4.75749 1.69342 3.22595 3.22497C1.6944 4.75652 0.833984 6.83374 0.833984 8.99967C0.833984 15.1247 9.00065 24.1663 9.00065 24.1663C9.00065 24.1663 17.1673 15.1247 17.1673 8.99967C17.1673 6.83374 16.3069 4.75652 14.7754 3.22497C13.2438 1.69342 11.1666 0.833008 9.00065 0.833008Z" fill="white"/>
</svg>
