<svg width="22" height="21" viewBox="0 0 22 21" fill="none" xmlns="http://www.w3.org/2000/svg">
<path d="M19.4346 14.3034L16.4712 13.9651C16.1228 13.9241 15.7696 13.9627 15.4382 14.0779C15.1068 14.1931 14.8058 14.3818 14.5579 14.6301L12.4112 16.7767C9.09952 15.092 6.40763 12.4001 4.72289 9.08839L6.88123 6.93005C7.38289 6.42839 7.62789 5.72839 7.54623 5.01672L7.20789 2.07672C7.14199 1.50749 6.86894 0.982415 6.44076 0.60158C6.01259 0.220746 5.45926 0.0107853 4.88623 0.0117219H2.86789C1.54956 0.0117219 0.452892 1.10839 0.534559 2.42672C1.15289 12.3901 9.12123 20.3467 19.0729 20.9651C20.3912 21.0467 21.4879 19.9501 21.4879 18.6317V16.6134C21.4996 15.4351 20.6129 14.4434 19.4346 14.3034Z" fill="white"/>
</svg>
