<svg width="172" height="163" viewBox="0 0 172 163" fill="none" xmlns="http://www.w3.org/2000/svg">
<path d="M89.2475 71.4328C85.2221 70.8371 82.2518 71.0165 79.3569 73.8768C75.2597 77.9261 75.853 85.6492 80.522 89.0238C85.191 92.3985 92.7107 90.5407 95.2707 85.38C97.8307 80.2194 94.7587 73.1076 89.2475 71.4328Z" stroke="#6F874B" stroke-width="1.93928" stroke-miterlimit="10" stroke-linecap="round" stroke-linejoin="round"/>
<path d="M89.5832 71.4396C87.8187 70.4682 85.3592 70.8857 84.1354 72.4851C82.9116 74.0857 83.2358 76.6959 84.901 77.83C86.5662 78.964 89.2339 78.1877 89.9038 76.288C90.5737 74.3884 90.9493 72.6502 89.3403 71.2147" stroke="#6F874B" stroke-width="1.93928" stroke-miterlimit="10" stroke-linecap="round" stroke-linejoin="round"/>
<path d="M92.8419 75.5083C91.0798 75.9497 89.3967 77.0132 88.5964 78.6437C87.7961 80.2742 88.1011 82.4873 89.5594 83.5711C91.1468 84.7506 93.7582 84.0604 94.5562 82.2504C95.3541 80.4405 94.7834 75.8851 92.8419 75.5083Z" stroke="#6F874B" stroke-width="1.93928" stroke-miterlimit="10" stroke-linecap="round" stroke-linejoin="round"/>
<path d="M90.3327 85.3379C92.3137 86.4361 92.5841 88.1443 90.8614 89.6145C89.1388 91.0859 86.0872 91.7523 85.3132 89.6241C84.5392 87.496 87.2511 83.6991 90.3327 85.3379Z" stroke="#6F874B" stroke-width="1.93928" stroke-miterlimit="10" stroke-linecap="round" stroke-linejoin="round"/>
<path d="M87.4268 81.2444C85.7449 80.8628 83.9959 80.4787 82.3116 80.8484C80.6273 81.218 79.0255 82.5698 78.9609 84.2936C78.8736 86.6239 81.7948 88.215 83.9971 87.4494C86.1994 86.6837 87.0643 83.5472 87.4268 81.2444Z" stroke="#6F874B" stroke-width="1.93928" stroke-miterlimit="10" stroke-linecap="round" stroke-linejoin="round"/>
<path d="M81.3358 75.2725C83.8886 75.19 85.8876 78.3995 84.6865 80.6545C83.4855 82.9094 79.7065 83.041 78.3511 80.8758C76.9958 78.7106 78.765 75.3694 81.3179 75.2725" stroke="#6F874B" stroke-width="1.93928" stroke-miterlimit="10" stroke-linecap="round" stroke-linejoin="round"/>
<path d="M89.5072 90.2498C87.22 107.257 87.1829 124.564 89.3972 141.581" stroke="#6F874B" stroke-width="1.93928" stroke-miterlimit="10" stroke-linecap="round" stroke-linejoin="round"/>
<path d="M89.0772 90.1372C80.5886 104.87 78.1913 120.976 79.244 137.947" stroke="#6F874B" stroke-width="1.93928" stroke-miterlimit="10" stroke-linecap="round" stroke-linejoin="round"/>
<path d="M77.8988 85.8738C64.2794 90.2413 54.2201 97.9644 44.8809 108.796" stroke="#6F874B" stroke-width="1.93928" stroke-miterlimit="10" stroke-linecap="round" stroke-linejoin="round"/>
<path d="M96.2578 81.3941C111.9 75.0408 126.959 73.0036 143.571 73.8768" stroke="#6F874B" stroke-width="1.93928" stroke-miterlimit="10" stroke-linecap="round" stroke-linejoin="round"/>
<path d="M93.7773 74.1733C96.5682 59.2536 103.648 46.2479 114.292 35.4265" stroke="#6F874B" stroke-width="1.93928" stroke-miterlimit="10" stroke-linecap="round" stroke-linejoin="round"/>
<path d="M60.1172 30.596C61.0742 32.016 62.0312 33.4359 62.987 34.8559C71.0043 46.7551 79.2095 58.7057 80.4655 72.9986" stroke="#6F874B" stroke-width="1.93928" stroke-miterlimit="10" stroke-linecap="round" stroke-linejoin="round"/>
<path d="M42.0586 56.1936C49.8773 68.0497 63.0206 77.0001 76.5946 81.1763" stroke="#6F874B" stroke-width="1.93928" stroke-miterlimit="10" stroke-linecap="round" stroke-linejoin="round"/>
<path d="M43.5289 18.6177C42.1903 17.7445 39.074 18.4515 39.0059 20.0485C38.9377 21.6455 40.6734 22.9865 42.2405 22.6719C43.8076 22.3561 44.8831 20.6358 44.6522 19.0544C44.1677 18.8809 43.6844 18.7063 43.1999 18.5328" stroke="#6F874B" stroke-width="1.93928" stroke-miterlimit="10" stroke-linecap="round" stroke-linejoin="round"/>
<path d="M32.2079 31.8474C30.6695 31.0339 29.1251 34.4804 29.9888 35.9912C30.8537 37.5009 33.7546 37.1612 34.4401 35.5618C35.1255 33.9624 33.7953 31.9431 32.0667 31.7349" stroke="#6F874B" stroke-width="1.93928" stroke-miterlimit="10" stroke-linecap="round" stroke-linejoin="round"/>
<path d="M32.8522 23.6218C31.3317 23.9161 29.8926 24.129 28.7957 25.2236C27.6999 26.3182 27.4942 28.4332 28.7921 29.2777C30.0147 30.0732 31.7612 29.2155 32.4251 27.9164C33.0891 26.6173 32.979 25.0753 32.8522 23.6218Z" stroke="#6F874B" stroke-width="1.93928" stroke-miterlimit="10" stroke-linecap="round" stroke-linejoin="round"/>
<path d="M20.8125 103.009C21.5183 105.387 22.2241 107.764 22.9299 110.142C24.1453 109.347 24.7542 107.728 24.3642 106.329C23.9742 104.929 22.6153 103.86 21.163 103.808" stroke="#6F874B" stroke-width="1.93928" stroke-miterlimit="10" stroke-linecap="round" stroke-linejoin="round"/>
<path d="M28.907 99.5386C27.0863 99.2814 25.4032 101.414 26.0778 103.125C26.7513 104.836 29.4369 105.248 30.5937 103.819C31.7505 102.389 30.7863 99.8496 28.9728 99.5481" stroke="#6F874B" stroke-width="1.93928" stroke-miterlimit="10" stroke-linecap="round" stroke-linejoin="round"/>
<path d="M32.8286 116.411C32.0271 114.704 29.4253 114.218 28.0627 115.522C26.7002 116.826 27.0698 119.447 28.7398 120.322C30.0186 120.992 31.801 120.53 32.5152 119.274C33.2282 118.019 32.9183 117.89 32.7437 115.802" stroke="#6F874B" stroke-width="1.93928" stroke-miterlimit="10" stroke-linecap="round" stroke-linejoin="round"/>
<path d="M36.7879 108.195C37.9614 109.688 37.0678 112.278 35.2232 112.73C33.3786 113.182 31.3892 111.299 31.7397 109.433C32.0902 107.567 35.2328 107.105 36.7879 108.195Z" stroke="#6F874B" stroke-width="1.93928" stroke-miterlimit="10" stroke-linecap="round" stroke-linejoin="round"/>
<path d="M50.6094 133.393C52.265 137.537 57.4974 139.837 61.67 138.254C59.2559 134.514 54.9626 132.381 50.6907 133.637" stroke="#6F874B" stroke-width="1.93928" stroke-miterlimit="10" stroke-linecap="round" stroke-linejoin="round"/>
<path d="M55.753 109.637C56.649 110.936 57.6192 112.299 59.0678 112.926C60.5165 113.553 62.5645 113.062 63.0334 111.556C63.5227 109.982 61.9556 108.378 60.3191 108.179C58.6827 107.981 57.0988 108.738 55.625 109.473" stroke="#6F874B" stroke-width="1.93928" stroke-miterlimit="10" stroke-linecap="round" stroke-linejoin="round"/>
<path d="M49.5723 116.07C50.5855 120.316 56.5237 122.409 59.9749 119.735C57.4472 117.113 53.0869 115.11 49.5723 116.07Z" stroke="#6F874B" stroke-width="1.93928" stroke-miterlimit="10" stroke-linecap="round" stroke-linejoin="round"/>
<path d="M39.7663 119.306C39.5019 121.654 39.271 124.18 40.4218 126.245C41.5726 128.31 44.7021 129.398 46.3493 127.703C47.7214 126.292 47.2333 123.8 45.8505 122.4C44.4652 121 41.66 119.839 39.7663 119.306Z" stroke="#6F874B" stroke-width="1.93928" stroke-miterlimit="10" stroke-linecap="round" stroke-linejoin="round"/>
<path d="M118.484 150.996C123.129 150.843 127.521 147.621 129.066 143.238C126.564 141.844 123.285 141.983 120.911 143.584C118.536 145.183 118.132 148.155 118.484 150.996Z" stroke="#6F874B" stroke-width="1.93928" stroke-miterlimit="10" stroke-linecap="round" stroke-linejoin="round"/>
<path d="M131.741 139.538C133.306 139.042 136.173 138.733 137.289 137.53C138.406 136.326 138.749 134.238 137.571 133.095C136.232 131.796 133.809 132.57 132.784 134.128C131.759 135.686 131.733 137.675 131.741 139.538Z" stroke="#6F874B" stroke-width="1.93928" stroke-miterlimit="10" stroke-linecap="round" stroke-linejoin="round"/>
<path d="M120.969 135.647C122.75 135.868 124.65 136.07 126.259 135.275C127.868 134.479 128.9 132.27 127.835 130.826C126.822 129.451 124.561 129.658 123.286 130.795C122.011 131.931 121.47 133.656 120.983 135.294" stroke="#6F874B" stroke-width="1.93928" stroke-miterlimit="10" stroke-linecap="round" stroke-linejoin="round"/>
<path d="M116.205 11.6401C116.205 11.6401 56.2484 -23.4558 14.8159 36.4995C-26.6165 96.4548 33.3388 162.261 93.2953 161.773C153.252 161.285 181.908 107.933 165.539 63.968C150.218 22.8239 116.205 11.6401 116.205 11.6401Z" stroke="#6F874B" stroke-width="1.93928" stroke-miterlimit="10" stroke-linecap="round" stroke-linejoin="round"/>
</svg>
