<?xml version="1.0" encoding="utf-8"?>
<!-- Generator: Adobe Illustrator 26.0.1, SVG Export Plug-In . SVG Version: 6.00 Build 0)  -->
<svg version="1.1" id="Layer_1" xmlns="http://www.w3.org/2000/svg" xmlns:xlink="http://www.w3.org/1999/xlink" x="0px" y="0px"
	 viewBox="0 0 1063.1 104" style="enable-background:new 0 0 1063.1 104;" xml:space="preserve">
<style type="text/css">
	.st0{enable-background:new    ;}
	.st1{fill:#FFFFFF;}
</style>
<g>
	<g class="st0">
		<path class="st1" d="M137.8,79.7V19.9h7.5v26.2h9.9l38.7-26.2h11.2l-42.4,29.3l43.6,30.5h-11.2l-39.9-27.4h-10v27.4H137.8z"/>
		<path class="st1" d="M265.2,66.4c0,3.3-0.5,6-1.5,7.9c-1,1.9-2.5,3.3-4.6,4.2c-2.1,0.9-4.7,1.4-7.8,1.7c-3.2,0.2-7,0.4-11.4,0.4
			c-5,0-9.3-0.3-12.8-0.8c-3.5-0.5-6.3-1.5-8.5-3.1c-2.1-1.6-3.7-3.9-4.7-7.1c-1-3.1-1.5-7.3-1.5-12.6c0-5.1,0.5-9.2,1.4-12.2
			c0.9-3.1,2.5-5.4,4.6-6.9c2.1-1.6,4.9-2.6,8.4-3.1c3.5-0.5,7.7-0.8,12.7-0.8c5.7,0,10.5,0.4,14.3,1.2c3.8,0.8,6.6,2.3,8.4,4.6
			c1.9,2.3,2.8,5.6,2.8,9.9v9.6h-45.1c0,3.3,0.3,6,0.7,8c0.4,2,1.3,3.5,2.6,4.5s3.3,1.7,5.9,2c2.6,0.3,6.1,0.5,10.5,0.5
			c3.9,0,7.1-0.1,9.6-0.2c2.4-0.2,4.3-0.5,5.5-1c1.3-0.5,2.1-1.3,2.6-2.4c0.4-1.1,0.7-2.5,0.7-4.3H265.2z M239.8,40.2
			c-4.2,0-7.6,0.2-10.2,0.5c-2.6,0.3-4.6,0.9-5.9,1.8c-1.4,0.9-2.3,2.2-2.7,4c-0.5,1.8-0.7,4.1-0.8,7h37.9v-3.7
			c0-1.9-0.2-3.4-0.6-4.7c-0.4-1.2-1.3-2.2-2.5-2.9c-1.2-0.7-3.1-1.2-5.5-1.5C247,40.4,243.8,40.2,239.8,40.2z"/>
		<path class="st1" d="M281.9,94.7v-6.2c2.7,0,4.9-0.1,6.6-0.2c1.8-0.1,3.2-0.4,4.4-1c1.2-0.5,2.2-1.4,3.2-2.6c0.9-1.2,1.9-2.9,3-5
			h-2.5l-24.9-44.9h8.6l21.3,39.3l18-39.3h8.8l-22.7,47.4c-1,2.1-2.1,3.9-3.1,5.5c-1.1,1.6-2.4,2.9-4.1,3.9c-1.6,1-3.7,1.8-6.4,2.3
			C289.4,94.4,286,94.7,281.9,94.7z"/>
		<path class="st1" d="M365.9,79.7l-32.3-59.8h8.6l28.7,54.5l28.7-54.5h8.5l-32.1,59.8H365.9z"/>
		<path class="st1" d="M467.1,66.4c0,3.3-0.5,6-1.5,7.9c-1,1.9-2.5,3.3-4.6,4.2c-2.1,0.9-4.7,1.4-7.8,1.7c-3.2,0.2-7,0.4-11.4,0.4
			c-5,0-9.3-0.3-12.8-0.8c-3.5-0.5-6.3-1.5-8.5-3.1s-3.7-3.9-4.7-7.1s-1.5-7.3-1.5-12.6c0-5.1,0.5-9.2,1.4-12.2
			c0.9-3.1,2.5-5.4,4.6-6.9c2.1-1.6,4.9-2.6,8.4-3.1c3.5-0.5,7.7-0.8,12.7-0.8c5.7,0,10.5,0.4,14.3,1.2c3.8,0.8,6.6,2.3,8.4,4.6
			c1.9,2.3,2.8,5.6,2.8,9.9v9.6H422c0,3.3,0.3,6,0.7,8c0.4,2,1.3,3.5,2.6,4.5s3.3,1.7,5.9,2c2.6,0.3,6.1,0.5,10.5,0.5
			c3.9,0,7.1-0.1,9.6-0.2c2.4-0.2,4.3-0.5,5.5-1c1.3-0.5,2.1-1.3,2.6-2.4s0.7-2.5,0.7-4.3H467.1z M441.6,40.2
			c-4.2,0-7.6,0.2-10.2,0.5c-2.6,0.3-4.6,0.9-5.9,1.8c-1.3,0.9-2.3,2.2-2.7,4c-0.5,1.8-0.7,4.1-0.8,7h37.9v-3.7
			c0-1.9-0.2-3.4-0.6-4.7c-0.4-1.2-1.3-2.2-2.5-2.9c-1.2-0.7-3.1-1.2-5.5-1.5C448.8,40.4,445.6,40.2,441.6,40.2z"/>
		<path class="st1" d="M477.5,79.7V34.9h7.5V41c0.8-1.3,1.7-2.4,2.5-3.3s1.9-1.6,3.3-2.1c1.4-0.5,3.2-0.9,5.5-1.1
			c2.3-0.2,5.4-0.3,9.2-0.3v6.3c-5.1,0-9.1,0.2-11.9,0.5c-2.8,0.4-4.8,1-6.1,1.9s-2,2.1-2.2,3.6c-0.3,1.5-0.4,3.5-0.4,5.8v27.4
			H477.5z"/>
		<path class="st1" d="M542.7,96.8c-4,0-7.6-0.1-10.8-0.3c-3.3-0.2-6.1-0.7-8.4-1.4c-2.3-0.7-4.1-1.9-5.4-3.5
			c-1.3-1.6-1.9-3.8-1.9-6.6h7.5c0,1.8,0.7,3.1,2.1,3.9c1.4,0.8,3.5,1.2,6.4,1.4c2.8,0.2,6.4,0.2,10.6,0.2c3.1,0,5.8-0.1,8.1-0.3
			c2.2-0.2,4.1-0.8,5.5-1.7c1.4-0.9,2.5-2.5,3.1-4.7c0.7-2.2,1-5.3,1-9.3v-1.1c-1.8,2.3-4.3,3.9-7.5,4.6c-3.2,0.8-7.1,1.1-11.8,1.1
			c-4.9,0-9-0.3-12.4-0.8c-3.4-0.6-6.2-1.6-8.4-3.2c-2.1-1.6-3.7-3.8-4.7-6.8c-1-3-1.5-6.8-1.5-11.6c0-5.1,0.5-9.2,1.5-12.2
			c1-3.1,2.6-5.4,4.7-6.9c2.1-1.5,4.9-2.6,8.4-3.1c3.4-0.5,7.6-0.8,12.4-0.8c4.7,0,8.6,0.3,11.8,1c3.2,0.7,5.7,2.2,7.5,4.6v-4.8h7.5
			V75c-0.1,4.9-0.7,8.9-1.9,11.8c-1.1,2.9-2.8,5.1-4.9,6.5c-2.1,1.4-4.7,2.4-7.8,2.8C550.2,96.6,546.7,96.8,542.7,96.8z M560.4,57
			c0-3.7-0.2-6.7-0.7-8.9c-0.5-2.2-1.3-3.9-2.6-5c-1.3-1.1-3.2-1.9-5.8-2.3c-2.6-0.4-6-0.6-10.2-0.6c-4.5,0-8,0.2-10.6,0.6
			c-2.6,0.4-4.6,1.1-5.8,2.3c-1.3,1.1-2.1,2.8-2.5,5c-0.4,2.2-0.6,5.2-0.6,8.9c0,3.4,0.2,6.1,0.6,8.3c0.4,2.1,1.2,3.8,2.5,4.9
			c1.3,1.1,3.2,1.9,5.8,2.4c2.6,0.4,6.2,0.6,10.6,0.6c4.2,0,7.6-0.2,10.2-0.6c2.6-0.4,4.5-1.2,5.8-2.4c1.3-1.1,2.2-2.8,2.6-4.9
			C560.1,63.1,560.4,60.4,560.4,57z"/>
		<path class="st1" d="M629.3,66.4c0,3.3-0.5,6-1.5,7.9c-1,1.9-2.5,3.3-4.6,4.2c-2.1,0.9-4.7,1.4-7.8,1.7c-3.2,0.2-7,0.4-11.4,0.4
			c-5,0-9.3-0.3-12.8-0.8c-3.5-0.5-6.3-1.5-8.5-3.1s-3.7-3.9-4.7-7.1s-1.5-7.3-1.5-12.6c0-5.1,0.5-9.2,1.4-12.2
			c0.9-3.1,2.5-5.4,4.6-6.9c2.1-1.6,4.9-2.6,8.4-3.1c3.5-0.5,7.7-0.8,12.7-0.8c5.7,0,10.5,0.4,14.3,1.2c3.8,0.8,6.6,2.3,8.4,4.6
			c1.9,2.3,2.8,5.6,2.8,9.9v9.6h-45.1c0,3.3,0.3,6,0.7,8c0.4,2,1.3,3.5,2.6,4.5s3.3,1.7,5.9,2c2.6,0.3,6.1,0.5,10.5,0.5
			c3.9,0,7.1-0.1,9.6-0.2c2.4-0.2,4.3-0.5,5.5-1c1.3-0.5,2.1-1.3,2.6-2.4s0.7-2.5,0.7-4.3H629.3z M603.9,40.2
			c-4.2,0-7.6,0.2-10.2,0.5c-2.6,0.3-4.6,0.9-5.9,1.8c-1.3,0.9-2.3,2.2-2.7,4c-0.5,1.8-0.7,4.1-0.8,7h37.9v-3.7
			c0-1.9-0.2-3.4-0.6-4.7c-0.4-1.2-1.3-2.2-2.5-2.9c-1.2-0.7-3.1-1.2-5.5-1.5C611.1,40.4,607.9,40.2,603.9,40.2z"/>
		<path class="st1" d="M664.2,79.7V19.9h58.7v6.2h-51.3v19.9h49.1v6.2h-49.1v21.2H724v6.2H664.2z"/>
		<path class="st1" d="M756.8,80.6c-5.5,0-9.8-0.2-13.1-0.5s-5.8-1-7.5-2c-1.7-1-2.8-2.4-3.4-4.2c-0.6-1.8-0.9-4.2-0.9-7.1h7.2
			c0,1.6,0.1,3,0.4,4s0.9,1.8,2,2.3s2.9,0.9,5.3,1.1c2.5,0.2,5.9,0.3,10.3,0.3c4.7,0,8.4-0.1,11-0.3c2.6-0.2,4.5-0.6,5.6-1.1
			c1.1-0.5,1.8-1.3,2.1-2.3c0.2-1,0.4-2.3,0.4-4c0-2-0.2-3.5-0.5-4.6s-1.2-1.7-2.6-2c-1.4-0.4-3.5-0.5-6.5-0.6l-17.8-0.2
			c-4.6-0.1-8.1-0.4-10.5-1.2c-2.4-0.7-4.1-2-4.9-3.8c-0.9-1.8-1.3-4.4-1.3-7.8c0-3.1,0.5-5.6,1.5-7.3s2.5-2.9,4.6-3.7
			c2.1-0.7,4.8-1.2,8.1-1.3c3.3-0.1,7.3-0.2,12-0.2c5.5,0,9.9,0.2,13.2,0.5c3.3,0.3,5.7,1,7.3,1.9s2.7,2.3,3.2,4.1
			c0.5,1.8,0.8,4.1,0.8,7h-7.2c0-1.7-0.1-3-0.4-4s-0.9-1.7-1.9-2.1c-1-0.5-2.7-0.7-5-0.9s-5.5-0.2-9.7-0.2c-4.7,0-8.4,0.1-11,0.2
			c-2.6,0.1-4.5,0.4-5.7,0.7s-1.9,1-2.1,1.9s-0.4,2-0.4,3.5c0,1.5,0.1,2.7,0.3,3.6c0.2,0.9,0.6,1.5,1.3,2c0.7,0.4,1.9,0.7,3.6,0.9
			c1.6,0.1,4,0.2,6.9,0.3l15.4,0.2c4.6,0.1,8.1,0.4,10.5,1.1s4,2,4.9,3.9c0.9,1.9,1.3,4.7,1.3,8.3c0,3.2-0.5,5.8-1.4,7.7
			s-2.5,3.3-4.5,4.1c-2.1,0.9-4.8,1.5-8.2,1.7C765.8,80.5,761.7,80.6,756.8,80.6z"/>
		<path class="st1" d="M814.1,79.7c-4.6,0-8.2-0.5-11-1.4c-2.8-0.9-4.7-2.6-6-4.9c-1.2-2.4-1.8-5.7-1.8-9.9V22.6h7.5v12.3h27.6V41
			h-27.6v22.5c0,2.9,0.3,5.1,0.8,6.5s1.6,2.4,3.2,2.8c1.6,0.4,4.1,0.7,7.3,0.7c2.9,0,5.1-0.1,6.8-0.3c1.6-0.2,2.9-0.7,3.6-1.5
			s1.3-2.1,1.5-3.9c0.2-1.8,0.3-4.4,0.3-7.7h6.6c0,4.3-0.3,7.8-0.8,10.4c-0.5,2.6-1.5,4.6-2.8,5.9s-3.3,2.2-5.7,2.6
			S818,79.7,814.1,79.7z"/>
		<path class="st1" d="M865.1,80.6c-5.4,0-9.8-0.3-13.3-0.8c-3.5-0.6-6.1-1.8-7.8-3.7c-1.7-1.9-2.6-4.8-2.6-8.8c0-4.1,0.8-7.1,2.4-9
			c1.6-1.9,4.1-3.1,7.6-3.7c3.5-0.6,8-0.9,13.7-0.9c4.6,0,8.4,0.1,11.5,0.3c3.1,0.2,5.9,0.6,8.3,1.1c-0.1-3.5-0.3-6.2-0.7-8.2
			c-0.4-2-1.2-3.5-2.3-4.4c-1.1-1-2.8-1.6-5-1.9c-2.2-0.3-5.1-0.4-8.7-0.4c-4.2,0-7.4,0.1-9.8,0.3s-4.1,0.5-5.1,1s-1.7,1.1-2,2
			c-0.3,0.9-0.4,2-0.4,3.4h-7.5c0-2.8,0.4-5.1,1.1-6.8s2.1-3,3.9-3.9c1.8-0.9,4.4-1.5,7.6-1.8s7.3-0.5,12.1-0.5
			c5.2,0,9.5,0.3,12.7,1c3.2,0.7,5.6,1.9,7.3,3.6c1.7,1.8,2.8,4.2,3.4,7.3c0.6,3.1,0.9,7.2,0.9,12.2v21.6h-7.5v-3.1
			c-0.9,0.9-2.1,1.7-3.7,2.3c-1.6,0.6-3.6,1-6.2,1.3C872.4,80.4,869.1,80.6,865.1,80.6z M865.1,74.5c4.4,0,8-0.1,10.6-0.2
			s4.6-0.4,5.9-0.9c1.3-0.5,2.2-1.2,2.6-2.3c0.4-1,0.6-2.5,0.6-4.4V60l-19.8-0.2c-3.5-0.1-6.3,0-8.5,0.1c-2.1,0.1-3.8,0.5-4.9,0.9
			c-1.1,0.5-1.9,1.2-2.2,2.3c-0.4,1-0.6,2.4-0.6,4.1c0,1.7,0.2,3,0.6,4c0.4,1,1.1,1.7,2.2,2.2c1.1,0.5,2.7,0.8,4.9,0.9
			C858.7,74.4,861.6,74.5,865.1,74.5z"/>
		<path class="st1" d="M922.9,79.7c-4.6,0-8.2-0.5-11-1.4c-2.8-0.9-4.7-2.6-6-4.9c-1.2-2.4-1.8-5.7-1.8-9.9V22.6h7.5v12.3h27.6V41
			h-27.6v22.5c0,2.9,0.3,5.1,0.8,6.5s1.6,2.4,3.2,2.8c1.6,0.4,4.1,0.7,7.3,0.7c2.9,0,5.1-0.1,6.8-0.3c1.6-0.2,2.9-0.7,3.6-1.5
			s1.3-2.1,1.5-3.9c0.2-1.8,0.3-4.4,0.3-7.7h6.6c0,4.3-0.3,7.8-0.8,10.4c-0.5,2.6-1.5,4.6-2.8,5.9s-3.3,2.2-5.7,2.6
			S926.8,79.7,922.9,79.7z"/>
		<path class="st1" d="M1001.5,66.4c0,3.3-0.5,6-1.5,7.9c-1,1.9-2.5,3.3-4.6,4.2c-2.1,0.9-4.7,1.4-7.8,1.7c-3.2,0.2-7,0.4-11.4,0.4
			c-5,0-9.3-0.3-12.8-0.8c-3.5-0.5-6.3-1.5-8.5-3.1s-3.7-3.9-4.7-7.1s-1.5-7.3-1.5-12.6c0-5.1,0.5-9.2,1.4-12.2
			c0.9-3.1,2.5-5.4,4.6-6.9c2.1-1.6,4.9-2.6,8.4-3.1c3.5-0.5,7.7-0.8,12.7-0.8c5.7,0,10.5,0.4,14.3,1.2c3.8,0.8,6.6,2.3,8.4,4.6
			c1.9,2.3,2.8,5.6,2.8,9.9v9.6h-45.1c0,3.3,0.3,6,0.7,8c0.4,2,1.3,3.5,2.6,4.5s3.3,1.7,5.9,2c2.6,0.3,6.1,0.5,10.5,0.5
			c3.9,0,7.1-0.1,9.6-0.2c2.4-0.2,4.3-0.5,5.5-1c1.3-0.5,2.1-1.3,2.6-2.4s0.7-2.5,0.7-4.3H1001.5z M976.1,40.2
			c-4.2,0-7.6,0.2-10.2,0.5c-2.6,0.3-4.6,0.9-5.9,1.8c-1.3,0.9-2.3,2.2-2.7,4c-0.5,1.8-0.7,4.1-0.8,7h37.9v-3.7
			c0-1.9-0.2-3.4-0.6-4.7c-0.4-1.2-1.3-2.2-2.5-2.9c-1.2-0.7-3.1-1.2-5.5-1.5C983.3,40.4,980.1,40.2,976.1,40.2z"/>
		<path class="st1" d="M1036.6,80.6c-5.5,0-9.8-0.2-13.1-0.5s-5.8-1-7.5-2c-1.7-1-2.8-2.4-3.4-4.2c-0.6-1.8-0.9-4.2-0.9-7.1h7.2
			c0,1.6,0.1,3,0.4,4s0.9,1.8,2,2.3s2.9,0.9,5.3,1.1c2.5,0.2,5.9,0.3,10.3,0.3c4.7,0,8.4-0.1,11-0.3c2.6-0.2,4.5-0.6,5.6-1.1
			c1.1-0.5,1.8-1.3,2.1-2.3c0.2-1,0.4-2.3,0.4-4c0-2-0.2-3.5-0.5-4.6s-1.2-1.7-2.6-2c-1.4-0.4-3.5-0.5-6.5-0.6l-17.8-0.2
			c-4.6-0.1-8.1-0.4-10.5-1.2c-2.4-0.7-4.1-2-4.9-3.8c-0.9-1.8-1.3-4.4-1.3-7.8c0-3.1,0.5-5.6,1.5-7.3s2.5-2.9,4.6-3.7
			c2.1-0.7,4.8-1.2,8.1-1.3c3.3-0.1,7.3-0.2,12-0.2c5.5,0,9.9,0.2,13.2,0.5c3.3,0.3,5.7,1,7.3,1.9s2.7,2.3,3.2,4.1
			c0.5,1.8,0.8,4.1,0.8,7h-7.2c0-1.7-0.1-3-0.4-4s-0.9-1.7-1.9-2.1c-1-0.5-2.7-0.7-5-0.9s-5.5-0.2-9.7-0.2c-4.7,0-8.4,0.1-11,0.2
			c-2.6,0.1-4.5,0.4-5.7,0.7s-1.9,1-2.1,1.9s-0.4,2-0.4,3.5c0,1.5,0.1,2.7,0.3,3.6c0.2,0.9,0.6,1.5,1.3,2c0.7,0.4,1.9,0.7,3.6,0.9
			c1.6,0.1,4,0.2,6.9,0.3l15.4,0.2c4.6,0.1,8.1,0.4,10.5,1.1s4,2,4.9,3.9c0.9,1.9,1.3,4.7,1.3,8.3c0,3.2-0.5,5.8-1.4,7.7
			s-2.5,3.3-4.5,4.1c-2.1,0.9-4.8,1.5-8.2,1.7C1045.6,80.5,1041.4,80.6,1036.6,80.6z"/>
	</g>
	<g>
		<path class="st1" d="M54,33.1l0.9,0.6l0.9,0.6l0.9,0.6l0.9,0.6l0.9,0.6l0.9,0.6l0.9,0.6l0.9,0.6l0.9,0.6l0.9,0.6l0.9,0.6l0.9,0.6
			l0.9,0.6l0.9,0.6l0.9,0.6l0.9,0.6l0.9,0.6l0.9,0.6l0.9,0.6l0.9,0.6l0.9,0.6l0.9,0.6l0.9,0.6l0.9,0.6l0.9,0.6l0.9,0.6l0.9,0.6
			l0.9,0.6l0.9,0.6l0.9,0.6l0.9,0.6l0.9,0.6V53v0.7v0.7v0.7V57v0.7v0.7v0.7v0.7v0.7v0.7V62v0.7v0.7v0.7v0.7v0.7v0.7v0.7v0.7v0.7V69
			v0.7v0.7v0.7v0.7v0.7v0.7v0.7v0.7v0.7V76l-0.4,0.4L81,77l-0.4,0.4l-0.4,0.4l-0.4,0.4l-0.4,0.4L79,79l-0.4,0.4l-0.4,0.4l-0.4,0.4
			l-0.4,0.4L77,81l-0.4,0.4l-0.4,0.4l-0.4,0.4l-0.4,0.4L75,83l-0.4,0.4l-0.4,0.4l-0.4,0.4l-0.4,0.4L73,85l-0.4,0.4l-0.4,0.4
			l-0.4,0.4l-0.4,0.4L71,87.1l-0.4,0.4l-0.4,0.4l-0.4,0.4l-0.4,0.4L69,89.1v-0.9v-0.9v-0.9v-0.9v-0.9v-0.9v-0.9v-0.9V81v-1v-0.9
			v-0.9v-0.9v-0.9v-0.9v-0.9v-0.9v-0.9v-0.9V71v-0.9V69v-0.9v-0.9v-0.9v-0.9v-0.9v-0.9v-0.9v-0.9v-0.9V60l-0.5-0.3L68,59.2l-0.5-0.3
			L67,58.6l-0.5-0.3L66,58l-0.5-0.3L65,57.4l-0.5-0.3L64,56.8l-0.5-0.3L63,56.2l-0.5-0.3L62,55.6l-0.5-0.3L61,55v-0.9l-0.5-0.3
			L60,53.5l-0.5-0.3L59,52.9l-0.5-0.3L58,52.3L57.5,52L57,51.7L56.8,51l-0.5-0.3l-0.5-0.3L55.4,50l-0.5-0.3l-0.5-0.3L54,49l-0.5,0.3
			L53,49.7L52.6,50l-0.5,0.3l-0.5,0.3L51.2,51l-0.5,0.3l-0.5,0.3l-0.5,0.3l-0.5,0.3l-0.5,0.3l-0.5,0.3l-0.5,0.3l-0.5,0.3l-0.5,0.3
			L46.2,54L46,54.8l-0.5,0.3L45,55.4l-0.5,0.3L44,56l-0.5,0.3L43,56.6l-0.5,0.3L42,57.2l-0.5,0.3L41,57.8l-0.5,0.3L40,58.4l-0.5,0.3
			L39,59v0.9v0.9v0.9v0.9v0.9v0.9v0.9v0.9v0.9V68v1v0.9v0.9v0.9v0.9v0.9v0.9v0.9v0.9v0.9V78v0.9V80v0.9v0.9v0.9v0.9v0.9v0.9v0.9v0.9
			v0.9V89l-0.4-0.4l-0.4-0.4l-0.4-0.4l-0.4-0.4L37,87.1l-0.4-0.4l-0.4-0.4l-0.4-0.4l-0.4-0.4L35,85l-0.4-0.4l-0.4-0.4l-0.4-0.4
			l-0.4-0.4L33,83l-0.4-0.4l-0.4-0.4l-0.4-0.4l-0.4-0.4L31,81l-0.4-0.4l-0.4-0.4l-0.4-0.4l-0.4-0.4L28.9,79l-0.4-0.4l-0.4-0.4
			l-0.4-0.4l-0.4-0.4L26.9,77l-0.4-0.4l-0.4-0.4v-0.7v-0.7v-0.7v-0.7v-0.7V72v-0.7v-0.7v-0.7v-0.7v-0.7v-0.7v-0.7v-0.7v-0.7V65v-0.7
			v-0.7v-0.7V62v-0.7v-0.7v-0.7v-0.7v-0.7v-0.7V57v-0.7v-0.7v-0.7v-0.7v-0.7l0.9-0.6l0.9-0.6l0.9-0.6l0.9-0.6l0.9-0.6l0.9-0.6
			l0.9-0.6l0.9-0.6l0.9-0.6l0.9-0.6l0.9-0.6l0.9-0.6l0.9-0.6l0.9-0.6l0.9-0.6l0.9-0.6l0.9-0.6l0.9-0.6l0.9-0.6l0.9-0.6l0.9-0.6
			l0.9-0.6l0.9-0.6l0.9-0.6l0.9-0.6l0.9-0.6l0.9-0.6l0.9-0.6l0.9-0.6l0.9-0.6l0.9-0.6L54,33.1 M54,25.4l-0.1,0.1l-0.1,0.1l-0.1,0.1
			l-0.1,0.1l-0.1,0.1L53.4,26l-0.2,0l-0.1,0.1L53,26.2l-0.1,0.1l-0.1,0.1l-0.1,0.1l-0.1,0.1l-0.1,0.1l-0.1,0.1l-0.1,0.1L52,26.8
			l-0.1,0.1L51.8,27l-0.1,0.1l-0.1,0.1l-0.1,0.1l-0.1,0.1l-0.1,0.1l-0.1,0.1l-0.2,0l-0.1,0.1l-0.1,0.1l-0.1,0.1L50.6,28l-0.2,0
			l-0.1,0.1l-0.9,0.6l-0.9,0.6L47.7,30l-0.9,0.6L46,31.3l-0.9,0.6l-0.9,0.6l-0.9,0.6l-0.9,0.6l-0.9,0.6l-0.9,0.6l-0.9,0.6L39,36.3
			L38.2,37l-0.9,0.6l-0.9,0.6l-0.9,0.6l-0.9,0.6L33.7,40l-0.9,0.6l-0.9,0.6L31,41.8l-0.9,0.6L29.2,43l-0.6,1l-0.9,0.6l-0.9,0.6
			L26,45.9l-0.9,0.6l-0.9,0.6l-0.9,0.6l-0.9,0.6l-0.1,0.1l-0.1,0.1l-0.1,0.1L22,48.7l-0.1,0.1l0.1,0l-0.1,0.1L21.8,49l-0.1,0.1
			l0-0.1l-0.1,0.1l-0.1,0.1l-0.1,0.1l-0.1,0.1l-0.1,0.1l-0.1,0.1L21,49.7l-0.1,0.1l0.1-0.3l-0.1,0.1l-0.1,0.1l-0.1,0.1l-0.1,0.1
			L20.5,50l-0.1,0.1l-0.1,0.1l0.1-0.2h-0.1l-0.1,0.1l-0.1,0.1l-0.1,0v0.1v0.1v0.1v0.1v0.1v0.1v0.1V51v0.1v0.1v0.1v0.1v0.1v0.1v0.1
			v0.1v0.1V52v0v0.1v0.1v0.1v0.1v0.1v0.1v0.1v0.1v0.1V53v0.1v0.1v0.1v0.1v0.7v0.7v0.7v0.7V57v0.7v0.7v0.7v0.7v0.7v0.7V62v0.7v0.7
			v0.7v0.7v0.7v0.7v0.7v0.7v0.7V69v0.7v0.7v0.7v0.7v0.7v0.7v0.7v0.7v0.7V76v0.1v0.1v0.1v0.1v0.1v0.1v0.1v0.1v0.1V77v0.1v0.1v0.1v0.1
			v0.1v0.1v0.1v0.1v0.1V78v0.1V78l0,0v0.1v0.1v0.1v0.1v0.1v0.1v0.1v0.1v0.1l0.1,0.1l0.1,0.1l0.1,0.1l0.1,0.1l0.1,0.1l0.1,0.1
			l0.1,0.1l0.1,0.1l0.1,0.1l0.1,0.1l0.1,0.1l0.1,0.1l0.1,0.1l0.1,0.1l0.1,0.1l0.1,0.1l0.1,0.1l0.1,0.1l0.1,0.1l0.1,0.1l0.1,0.1
			l0.1,0.1l0.1,0.1l0.1,0.1l0.1,0.1l0.1,0.1l0.1,0.1l0.1,0.1l0.1,0.1l0.1,0.1l0.1,0.1l0.1,0.1l0.4,0.4l0.4,0.4l0.4,0.4l0.4,0.4
			l0.4,0.4l0.4,0.4l0.4,0.4l0.4,0.4l0.4,0.4l0.4,0.4l0.4,0.4l0.4,0.4l0.4,0.4l0.4,0.4l0.4,0.4l0.4,0.4l0.4,0.4l0.4,0.4l0.4,0.4
			l0.4,0.4l0.4,0.4l0.4,0.4l0.4,0.4l0.4,0.4l0.4,0.4l0.4,0.4l0.4,0.4l0.4,0.4l0.4,0.4l0.4,0.4l0.4,0.4l0.4,0.4l0.3,0.3l0.3,0.3
			l0.3,0.3l0.3,0.3l0.3,0.3l0.3,0.3l0.3,0.3l0.3,0.3l0.3,0.3l0.3,0.3l0.3,0.3l0.3,0.3l0.3,0.3l0.3,0.3l0.3,0.3l0.3,0.3l0.3,0.3
			l0.3,0.3l0.3,0.3l0.3,0.3l0.3,0.3l0.3,0.3l0.3,0.3l0.3,0.3l0.3,0.3l0.3,0.3l0.3,0.3l0.3,0.3l0.3,0.3l0.3,0.3l0.3,0.3l0.3,0.3V104
			v-1v-0.5V102v-0.5V101v-0.5V100v-0.5V99v-0.5V98v-0.5V97l0,0v-0.5V96v-0.5V95v-0.5V94v-0.5V93v-0.5V92v-0.5V91v-0.5V90l0,0v-0.5
			V89v-0.8v-0.8v-0.8v-0.8V85v-0.8v-0.8v-0.8v-0.8V81v-0.8v-0.8v-0.8v-0.8V77v-0.8v-0.8v-0.8v-0.8V73v-1v-0.8v-0.8v-0.8v-0.8V68
			v-0.8v-0.8v-0.8v-0.8V64v-0.8l0.3-0.2l0.3-0.2l0.3-0.2l0.3-0.2l0.3-0.2l0.3-0.2l0.3-0.2l0.3-0.2l0.3-0.2l0.3-0.2l0.3-0.2l0.3-0.2
			l0.3-0.2l0.3-0.2l0.3-0.2l0.3-0.2l0.3-0.2l0.3-0.2l0.3-0.2l0.3-0.2l0.3-0.2l0.3-0.2l0.3-0.2l0.3-0.2L52,58l0.3-0.2l0.3-0.2
			l0.3-0.2l0.3-0.2l0.3-0.2l0.3-0.2l0.3-0.2l0.3,0.2l0.3,0.2l0.3,0.2l0.3,0.2l0.3,0.2l0.3,0.2l0.3,0.2l0.3,0.2l0.3,0.2l0.3,0.2
			l0.3,0.2l0.3,0.2l0.3,0.2l0.3,0.2l0.3,0.2l0.3,0.2l0.3,0.2l0.3,0.2l0.3,0.2l0.3,0.2l0.3,0.2l0.3,0.2l0.3,0.2l0.3,0.2l0.3,0.2
			l0.3,0.2l0.3,0.2l0.3,0.2l0.3,0.2l0.3,0.2l0.3,0.2l0.3,0.2v0.8v0.8v0.8v0.8V67v0.8v0.8v0.8v0.8V71v1v0.8v0.8v0.8v0.8V76v0.8v0.8
			v0.8v0.8V80v0.8v0.8v0.8v0.8V84v1v0.8v0.8v0.8v0.8V89v0.5V90v0.5V91v0.5V92v0.5V93v0.5V94v0.5V95v0.5V96l0,0v0.5V97v0.5V98v0.5V99
			v0.5v0.5v0.5v0.5v0.5v0.5v0.5v0.5v0.5v0.5v0.5l0.3-0.3l0.3-0.3l0.3-0.3l0.3-0.3l0.3-0.3l0.3-0.3l0.3-0.3l0.3-0.3l0.3-0.3l0.3-0.3
			l0.3-0.3l0.3-0.3l0.3-0.3l0.3-0.3l0.3-0.3l0.3-0.3l0.3-0.3l0.3-0.3l0.3-0.3l0.3-0.3l0.3-0.3l0.3-0.3l0.3-0.3l0.3-0.3l0.3-0.3
			l0.3-0.3l0.3-0.3l0.3-0.3l0.3-0.3l0.3-0.3l0.3-0.3l0.3-0.3l0.4-0.4l0.4-0.4l0.4-0.4l0.4-0.4l0.4-0.4l0.4-0.4l0.4-0.4l0.4-0.4
			l0.4-0.4l0.4-0.4l0.4-0.4l0.4-0.4l0.4-0.4l0.4-0.4l0.4-0.4l0.4-0.4l0.4-0.4l0.4-0.4l0.4-0.4l0.4-0.4l0.4-0.4l0.4-0.4l0.4-0.4
			l0.4-0.4l0.4-0.4l0.4-0.4l0.4-0.4l0.4-0.4l0.4-0.4l0.4-0.4l0.4-0.4l0.4-0.4l0.1-0.1l0.1-0.1l0.1-0.1l0.1-0.1l0.1-0.1l0.1-0.1
			l0.1-0.1l0.1-0.1l0.1-0.1l0.1-0.1l0.1-0.1l0.1-0.1l0.1-0.1l0.1-0.1l0.1-0.1l0.1-0.1l0.1-0.1l0.1-0.1l0.1-0.1l0.1-0.1l0.1-0.1
			l0.1-0.1l0.1-0.1l0.1-0.1l0.1-0.1l0.1-0.1l0.1-0.1l0.1-0.1l0.1-0.1l0.1-0.1l0.1-0.1l0.1-0.1v-0.1v-0.1v-0.1v-0.1v-0.1v-0.1v-0.1
			v-0.1V78l0,0v-0.1v-0.1v-0.1v-0.1v-0.1v-0.1v-0.1v-0.1v-0.1V77v-0.1V77v-0.1v-0.1v-0.1v-0.1v-0.1v-0.1v-0.1v-0.1v-0.1V76v-0.7
			v-0.7v-0.7v-0.7v-0.7v-0.7v-0.7v-0.7v-0.7V69v-0.7v-0.7v-0.7v-0.7v-0.7v-0.7v-0.7v-0.7v-0.7V62v-0.7v-0.7v-0.7v-0.7v-0.7v-0.7V57
			v-0.7v-0.7v-0.7v-0.7v-0.7v-0.1v-0.1v-0.1V53v-0.1v-0.1v-0.1v-0.1v-0.1v-0.1v-0.1v-0.1v-0.1V52v-0.1v-0.1v-0.1v-0.1v-0.1v-0.1
			v-0.1v-0.1v-0.1V51v0v-0.1v-0.1v-0.1v-0.1v-0.1v-0.1v-0.1l-0.1-0.1l-0.1-0.1L89,50l-1.3,0h-0.1l-0.1-0.1l-0.1-0.1l-0.1-0.1
			l-0.1-0.1l-0.1-0.1L87,49.4l0,0.2l-0.1-0.1l-0.1-0.1l-0.1-0.1l-0.1-0.1l-0.1-0.1L86.4,49l-0.1-0.1l-0.1-0.1l-0.1-0.1l0.1,0.3
			l-0.1-0.1L86,48.8v0l-0.1-0.1l-0.1-0.1l-0.1-0.1l-0.1-0.1l-0.1-0.1l-0.1-0.1l-0.1-0.1l-0.9-0.6l-0.9-0.6l-0.9-0.6L82,45.9
			l-0.9-0.6l-0.9-0.6L79.4,44l-0.9-0.6l-0.9-0.6l-0.9-0.6l-0.9-0.6L75,40.8l-0.9-0.6l-0.9-0.6L72.3,39l-0.9-0.6l-0.9-0.6L69.8,37
			l-0.9-0.6L68,35.7l-0.9-0.6l-0.9-0.6l-0.9-0.6l-0.9-0.6l-0.9-0.6l-0.9-0.6L62,31.3l-0.9-0.6L60.2,30l-0.9-0.6l-0.9-0.6l-0.9-0.6
			l0-0.2l-0.1-0.1l-0.1-0.1l-0.1-0.1l-0.2,0l-0.1-0.1l-0.1-0.1l-0.1-0.1l-0.1-0.1l-0.1-0.1l-0.1-0.1L56.3,27l-0.2,0L56,26.9
			l-0.1-0.1l-0.1-0.1l-0.1-0.1l-0.1-0.1l-0.1-0.1l-0.1-0.1l-0.1-0.1l-0.1-0.1L55,26.2l-0.1-0.1L54.8,26l-0.1-0.1l-0.1-0.1l-0.1-0.1
			l-0.1-0.1l-0.1-0.1l-0.1-0.1L54,25.4L54,25.4L54,25.4L54,25.4L54,25.4L54,25.4L54,25.4L54,25.4L54,25.4L54,25.4L54,25.4L54,25.4
			L54,25.4L54,25.4L54,25.4L54,25.4L54,25.4L54,25.4L54,25.4L54,25.4L54,25.4L54,25.4L54,25.4L54,25.4L54,25.4L54,25.4L54,25.4
			L54,25.4L54,25.4L54,25.4L54,25.4L54,25.4L54,25.4z"/>
		<polygon class="st1" points="0,89.1 0,87.5 0,86 0,84.4 0,82.9 0,81.3 0,79.8 0,78.2 0,76.7 0,75.1 0,73.6 0,72 0,70.4 0,68.9 
			0,67.3 0,65.8 0,64.2 0,62.7 0,61.1 0,59.6 0,58 0,56.5 0,54.9 0,53.4 0,51.8 0,50.3 0,48.7 0,47.2 0,45.6 0,44.1 0,42.5 0,41 
			0,39.4 1.7,38.2 3.4,37 5.1,35.7 6.7,34.5 8.4,33.3 10.1,32 11.8,30.8 13.5,29.6 15.2,28.3 16.9,27.1 18.6,25.9 20.2,24.6 
			21.9,23.4 23.6,22.2 25.3,20.9 27,19.7 28.7,18.5 30.4,17.2 32,16 33.7,14.8 35.4,13.5 37.1,12.3 38.8,11.1 40.5,9.9 42.2,8.6 
			43.9,7.4 45.5,6.2 47.2,4.9 48.9,3.7 50.6,2.5 52.3,1.2 54,0 55.7,1.2 57.3,2.5 59,3.7 60.7,4.9 62.4,6.2 64.1,7.4 65.8,8.6 
			67.5,9.9 69.1,11.1 70.8,12.3 72.5,13.5 74.2,14.8 75.9,16 77.6,17.2 79.3,18.5 81,19.7 82.6,20.9 84.3,22.2 86,23.4 87.7,24.6 
			89.4,25.9 91.1,27.1 92.8,28.3 94.4,29.6 96.1,30.8 97.8,32 99.5,33.3 101.2,34.5 102.9,35.7 104.6,37 106.3,38.2 107.9,39.4 
			107.9,41 107.9,42.5 107.9,44.1 107.9,45.6 107.9,47.2 107.9,48.7 107.9,50.3 107.9,51.8 107.9,53.4 107.9,54.9 107.9,56.5 
			107.9,58 107.9,59.6 107.9,61.1 107.9,62.7 107.9,64.2 107.9,65.8 107.9,67.3 107.9,68.9 107.9,70.4 107.9,72 107.9,73.6 
			107.9,75.1 107.9,76.7 107.9,78.2 107.9,79.8 107.9,81.3 107.9,82.9 107.9,84.4 107.9,86 107.9,87.5 107.9,89.1 107.5,88.7 
			107.1,88.2 106.7,87.8 106.3,87.4 105.9,87 105.5,86.6 105,86.2 104.6,85.7 104.2,85.3 103.8,84.9 103.4,84.5 103,84.1 
			102.5,83.7 102.1,83.3 101.7,82.8 101.3,82.4 100.9,82 100.5,81.6 100.1,81.2 99.6,80.8 99.2,80.4 98.8,79.9 98.4,79.5 98,79.1 
			97.6,78.7 97.2,78.3 96.7,77.9 96.3,77.4 95.9,77 95.5,76.6 95.1,76.2 94.7,75.8 94.7,74.9 94.7,73.9 94.7,73 94.7,72.1 
			94.7,71.2 94.7,70.2 94.7,69.3 94.7,68.4 94.7,67.5 94.7,66.5 94.7,65.6 94.7,64.7 94.7,63.8 94.7,62.8 94.7,61.9 94.7,61 
			94.7,60 94.7,59.1 94.7,58.2 94.7,57.3 94.7,56.3 94.7,55.4 94.7,54.5 94.7,53.6 94.7,52.6 94.7,51.7 94.7,50.8 94.7,49.9 
			94.7,48.9 94.7,48 94.7,47.1 94.7,46.2 93.4,45.2 92.1,44.3 90.8,43.4 89.6,42.4 88.3,41.5 87,40.6 85.8,39.7 84.5,38.7 
			83.2,37.8 81.9,36.9 80.7,35.9 79.4,35 78.1,34.1 76.9,33.2 75.6,32.2 74.3,31.3 73,30.4 71.8,29.4 70.5,28.5 69.2,27.6 68,26.7 
			66.7,25.7 65.4,24.8 64.1,23.9 62.9,22.9 61.6,22 60.3,21.1 59.1,20.2 57.8,19.2 56.5,18.3 55.2,17.4 54,16.4 52.7,17.4 
			51.4,18.3 50.2,19.2 48.9,20.2 47.6,21.1 46.3,22 45.1,22.9 43.8,23.9 42.5,24.8 41.3,25.7 40,26.7 38.7,27.6 37.4,28.5 
			36.2,29.4 34.9,30.4 33.6,31.3 32.4,32.2 31.1,33.2 29.8,34.1 28.5,35 27.3,35.9 26,36.9 24.7,37.8 23.4,38.7 22.2,39.7 
			20.9,40.6 19.6,41.5 18.4,42.4 17.1,43.4 15.8,44.3 14.5,45.2 13.3,46.2 13.3,47.1 13.3,48 13.3,48.9 13.3,49.9 13.3,50.8 
			13.3,51.7 13.3,52.6 13.3,53.6 13.3,54.5 13.3,55.4 13.3,56.3 13.3,57.3 13.3,58.2 13.3,59.1 13.3,60 13.3,61 13.3,61.9 
			13.3,62.8 13.3,63.8 13.3,64.7 13.3,65.6 13.3,66.5 13.3,67.5 13.3,68.4 13.3,69.3 13.3,70.2 13.3,71.2 13.3,72.1 13.3,73 
			13.3,73.9 13.3,74.9 13.3,75.8 12.9,76.2 12.4,76.6 12,77 11.6,77.4 11.2,77.9 10.8,78.3 10.4,78.7 10,79.1 9.5,79.5 9.1,79.9 
			8.7,80.4 8.3,80.8 7.9,81.2 7.5,81.6 7.1,82 6.6,82.4 6.2,82.8 5.8,83.3 5.4,83.7 5,84.1 4.6,84.5 4.1,84.9 3.7,85.3 3.3,85.7 
			2.9,86.2 2.5,86.6 2.1,87 1.7,87.4 1.2,87.8 0.8,88.2 0.4,88.7 		"/>
	</g>
</g>
</svg>
