<svg xmlns="http://www.w3.org/2000/svg" viewBox="0 0 800 800"><defs><style>.cls-1,.cls-2{fill:#fff;}.cls-2{opacity:0;}</style></defs><g id="circle"><path class="cls-1" d="M400,766.67A366.76,366.76,0,0,1,257.27,62.16,366.75,366.75,0,0,1,542.73,737.84,364.36,364.36,0,0,1,400,766.67ZM400,100c-165.42,0-300,134.58-300,300S234.58,700,400,700,700,565.42,700,400,565.42,100,400,100Z"/></g><g id="play"><path class="cls-2" d="M354.35,535.28c-.89,0-1.77,0-2.66-.1a43.22,43.22,0,0,1-31.24-17.32c-8.52-11.47-8.52-26.67-8.52-57V339.1c0-30.28,0-45.49,8.52-57a43.22,43.22,0,0,1,31.24-17.32c14.25-1.14,27.14,6.91,52.82,23L502,348.68c23.26,14.54,34.94,21.84,40.28,34.29a43.41,43.41,0,0,1,0,34.06c-5.34,12.45-17,19.75-40.28,34.29l-97.44,60.89C380.44,527.26,367.6,535.28,354.35,535.28Zm0-241.75-.31,0a14.36,14.36,0,0,0-10.41,5.77c-2.85,3.82-2.85,20.49-2.85,39.78V460.9c0,19.29,0,36,2.84,39.78A14.4,14.4,0,0,0,354,506.45c4.74.37,18.88-8.44,35.24-18.67l97.43-60.9c15.25-9.53,27.29-17.05,29.07-21.21a14.41,14.41,0,0,0,0-11.34c-1.78-4.16-13.82-11.68-29.07-21.21l-97.43-60.9C373.22,302.21,359.34,293.53,354.31,293.53Z"/></g><g id="pause"><path class="cls-1" d="M483.33,533.33A33.33,33.33,0,0,1,450,500V300a33.34,33.34,0,0,1,66.67,0V500A33.34,33.34,0,0,1,483.33,533.33Z"/><path class="cls-1" d="M316.67,533.33A33.34,33.34,0,0,1,283.33,500V300A33.34,33.34,0,0,1,350,300V500A33.33,33.33,0,0,1,316.67,533.33Z"/></g></svg>